<svg width="1200" height="760" viewBox="0 0 1200 760" fill="none" xmlns="http://www.w3.org/2000/svg">
  <defs>
    <linearGradient id="bg" x1="120" y1="60" x2="1080" y2="700" gradientUnits="userSpaceOnUse">
      <stop stop-color="#E8F8EC"/>
      <stop offset="1" stop-color="#CDEFD8"/>
    </linearGradient>
    <linearGradient id="plant" x1="170" y1="470" x2="980" y2="470" gradientUnits="userSpaceOnUse">
      <stop stop-color="#006B1D"/>
      <stop offset="1" stop-color="#00943E"/>
    </linearGradient>
  </defs>
  <rect width="1200" height="760" rx="32" fill="url(#bg)"/>
  <circle cx="190" cy="150" r="78" fill="#00AD4B" fill-opacity="0.18"/>
  <circle cx="1010" cy="620" r="110" fill="#0099E0" fill-opacity="0.2"/>
  <rect x="170" y="390" width="820" height="180" rx="26" fill="url(#plant)"/>
  <rect x="230" y="340" width="170" height="170" rx="18" fill="#FFFFFF" fill-opacity="0.82"/>
  <rect x="435" y="310" width="220" height="200" rx="18" fill="#FFFFFF" fill-opacity="0.84"/>
  <rect x="690" y="265" width="220" height="245" rx="18" fill="#FFFFFF" fill-opacity="0.86"/>
  <rect x="760" y="320" width="52" height="150" rx="9" fill="#0061C2" fill-opacity="0.22"/>
  <rect x="820" y="300" width="52" height="170" rx="9" fill="#0061C2" fill-opacity="0.36"/>
  <rect x="255" y="375" width="22" height="95" rx="4" fill="#00802A"/>
  <rect x="287" y="355" width="22" height="115" rx="4" fill="#00802A" fill-opacity="0.86"/>
  <rect x="319" y="370" width="22" height="100" rx="4" fill="#00802A" fill-opacity="0.74"/>
  <path d="M110 620H1090" stroke="#006B1D" stroke-width="12" stroke-linecap="round" stroke-opacity="0.28"/>
  <path d="M410 500C454 462 512 470 560 500" stroke="#0099E0" stroke-width="11" stroke-linecap="round"/>
  <path d="M420 520H560" stroke="#0099E0" stroke-width="8" stroke-linecap="round" stroke-opacity="0.52"/>
</svg>
