<svg width="960" height="620" viewBox="0 0 960 620" fill="none" xmlns="http://www.w3.org/2000/svg">
  <rect width="960" height="620" rx="26" fill="#E8F6FD"/>
  <circle cx="480" cy="310" r="176" fill="#FFFFFF" fill-opacity="0.88"/>
  <path d="M480 150C560 150 625 215 625 295" stroke="#0078D4" stroke-width="18" stroke-linecap="round"/>
  <path d="M625 325C625 405 560 470 480 470" stroke="#0099E0" stroke-width="18" stroke-linecap="round"/>
  <path d="M450 470C370 470 305 405 305 325" stroke="#00943E" stroke-width="18" stroke-linecap="round"/>
  <path d="M305 295C305 215 370 150 450 150" stroke="#006B1D" stroke-width="18" stroke-linecap="round"/>
  <path d="M640 298L598 267" stroke="#0078D4" stroke-width="14" stroke-linecap="round"/>
  <path d="M319 322L365 350" stroke="#00943E" stroke-width="14" stroke-linecap="round"/>
  <rect x="100" y="480" width="760" height="22" rx="11" fill="#006B1D" fill-opacity="0.22"/>
  <rect x="190" y="90" width="124" height="26" rx="13" fill="#00AD4B" fill-opacity="0.42"/>
  <rect x="650" y="90" width="124" height="26" rx="13" fill="#0099E0" fill-opacity="0.42"/>
</svg>
